# xmcd
# 
# Track frame offsets:
#     150
#     20411
#     35578
#     51368
#     69364
#     87962
#     111062
#     136094
#     151830
#     168310
#     183668
#     200587
# 
# Disc length: 3082
# 
# Revision: 6
# Processed by: cddbd v1.5.2PL0 Copyright (c) Steve Scherf et al.
# Submitted via: fre:ac v1.0.17
# 
DISCID=9c0c080c
DTITLE=Louis Bertignac - Longtemps
DYEAR=2005
DGENRE=Chanson française
TTITLE0=Rêver D'L
TTITLE1=Je Joue
TTITLE2=Elle Pleure
TTITLE3=Les Frôleuses
TTITLE4=Audimat
TTITLE5=La Saga Des Gnous
TTITLE6=Sous La Pluie
TTITLE7=Sans Toi
TTITLE8=J'ai Pas Le Temps
TTITLE9=Tant Pis Pour Tout
TTITLE10=Rendez-vous Là-haut
TTITLE11=Longtemps
EXTD=
EXTT0=
EXTT1=
EXTT2=
EXTT3=
EXTT4=
EXTT5=
EXTT6=
EXTT7=
EXTT8=
EXTT9=
EXTT10=
EXTT11=
PLAYORDER=
